<svg xmlns="http://www.w3.org/2000/svg" version="1.1" xmlns:xlink="http://www.w3.org/1999/xlink" xmlns:svgjs="http://svgjs.dev/svgjs" width="130" height="130" viewBox="0 0 130 130"><g transform="matrix(1,0,0,1,-0.323615160350073,-0.3236151603499593)"><svg viewBox="0 0 343 343" data-background-color="#ffffff" preserveAspectRatio="xMidYMid meet" height="130" width="130" xmlns="http://www.w3.org/2000/svg" xmlns:xlink="http://www.w3.org/1999/xlink"><g id="tight-bounds" transform="matrix(1,0,0,1,0.0740000000000407,0.07400000000001228)"><svg viewBox="0 0 342.85155851775386 342.85155851775386" height="342.85155851775386" width="342.85155851775386"><g><svg></svg></g><g><svg viewBox="0 0 342.85155851775386 342.85155851775386" height="342.85155851775386" width="342.85155851775386"><g><path d="M0 171.426c0-94.676 76.75-171.426 171.426-171.426 94.676 0 171.426 76.75 171.426 171.426 0 94.676-76.75 171.426-171.426 171.426-94.676 0-171.426-76.75-171.426-171.426zM171.426 340.578c93.42 0 169.152-75.732 169.152-169.152 0-93.42-75.732-169.152-169.152-169.152-93.42 0-169.152 75.732-169.152 169.152 0 93.42 75.732 169.152 169.152 169.152z" data-fill-palette-color="tertiary" fill="#495661" stroke="transparent"></path><ellipse rx="164.56874808852186" ry="164.56874808852186" cx="171.42577925887693" cy="171.42577925887693" fill="#495661" stroke="transparent" stroke-width="0" fill-opacity="1" data-fill-palette-color="tertiary"></ellipse></g><g transform="matrix(1,0,0,1,64.84655864529837,112.77922718328429)"><svg viewBox="0 0 213.1584412271571 117.29310415118528" height="117.29310415118528" width="213.1584412271571"><g><svg viewBox="0 0 213.1584412271571 117.29310415118528" height="117.29310415118528" width="213.1584412271571"><g><svg viewBox="0 0 213.1584412271571 117.29310415118528" height="117.29310415118528" width="213.1584412271571"><g transform="matrix(1,0,0,1,0,70.55027147650877)"><svg viewBox="0 0 213.1584412271571 46.742832674676514" height="46.742832674676514" width="213.1584412271571"><g id="textblocktransform"><svg viewBox="0 0 213.1584412271571 46.742832674676514" height="46.742832674676514" width="213.1584412271571" id="textblock"><g><svg viewBox="0 0 213.1584412271571 25.21085040455543" height="25.21085040455543" width="213.1584412271571"><g transform="matrix(1,0,0,1,0,0)"><svg width="213.1584412271571" viewBox="3.35 -25.25 263.3541162109375 31.15" height="25.21085040455543" data-palette-color="#ffffff"><g transform="matrix(1,0,0,1,0,0)"><g><svg width="11.382744140624999" viewBox="1.78 -36.36 74.21 36.36" height="5.577" data-palette-color="#ffffff" id="scriptelement" x="255.3213720703125" y="-5.577"><path d="M12.91-30.02L1.78-30.02 1.78-36.36 31.64-36.36 31.64-30.02 20.51-30.02 20.51 0 12.91 0 12.91-30.02ZM36.57 0L36.57-36.36 46.06-36.36 56.07-11.93 56.5-11.93 66.51-36.36 75.99-36.36 75.99 0 68.53 0 68.53-23.67 68.23-23.67 58.82-0.18 53.74-0.18 44.33-23.76 44.03-23.76 44.03 0 36.57 0Z" opacity="1" transform="matrix(1,0,0,1,0,0)" fill="#ffffff" class="undefined-123" data-fill-palette-color="quaternary" id="yy-123"></path></svg></g></g><path d="M10 0L3.35 0Q3.35-5.2 3.35-10.38 3.35-15.55 3.35-20.75L3.35-20.75Q3.35-21.5 3.45-22 3.55-22.5 4.03-22.75 4.5-23 5.6-23L5.6-23 10-23 10 0ZM21.9 0L17.5 0Q15.85 0 15.85-1.7L15.85-1.7 15.85-18.65Q17.35-19.25 20.12-19.68 22.9-20.1 26.3-20.1L26.3-20.1Q29.85-20.1 31.92-19.7 34-19.3 35.02-18.35 36.05-17.4 36.37-15.85 36.7-14.3 36.7-12L36.7-12 36.7-2.35Q36.7-1.45 36.57-0.93 36.45-0.4 35.92-0.18 35.4 0.05 34.3 0.05L34.3 0.05 30.7 0 30.7-13.4Q30.7-15.15 29.6-15.95 28.5-16.75 26.35-16.75L26.35-16.75Q25.6-16.75 24.75-16.63 23.9-16.5 23.15-16.28 22.4-16.05 21.9-15.7L21.9-15.7 21.9 0ZM48.3 0.2L48.3 0.2Q45.95 0.2 44.62-0.33 43.3-0.85 42.75-2.08 42.2-3.3 42.2-5.45L42.2-5.45 42.2-16.75 40.15-16.75 40.15-19.95 42.2-19.95 42.2-22.9Q42.2-23.95 42.35-24.45 42.5-24.95 42.97-25.1 43.45-25.25 44.4-25.25L44.4-25.25 48.3-25.25Q48.3-25.1 48.27-24.78 48.25-24.45 48.25-23.95L48.25-23.95 48.25-19.95 53.05-19.95 53.05-16.75 48.3-16.75 48.3-6Q48.3-4.05 48.67-3.18 49.05-2.3 50.65-2.3L50.65-2.3Q51.15-2.3 51.82-2.4 52.5-2.5 52.75-2.6L52.75-2.6 52.75-0.25Q52.45-0.2 51.25 0 50.05 0.2 48.3 0.2ZM66.79 0.3L66.79 0.3Q63.49 0.3 61.34-0.13 59.19-0.55 57.94-1.6 56.69-2.65 56.14-4.6 55.59-6.55 55.59-9.6L55.59-9.6Q55.59-13.4 56.62-15.7 57.64-18 60.22-19.05 62.79-20.1 67.39-20.1L67.39-20.1Q70.99-20.1 73.14-19.3 75.29-18.5 76.24-16.78 77.19-15.05 77.19-12.35L77.19-12.35 77.19-8.85 63.19-8.85Q63.19-9.75 63.62-10.38 64.04-11 65.14-11L65.14-11 71.74-11 71.74-12.2Q71.69-14.6 70.72-15.75 69.74-16.9 67.19-16.9L67.19-16.9Q65.04-16.9 63.87-16.25 62.69-15.6 62.22-14.05 61.74-12.5 61.74-9.7L61.74-9.7Q61.74-7 62.29-5.6 62.84-4.2 64.22-3.73 65.59-3.25 68.04-3.25L68.04-3.25Q68.94-3.25 70.32-3.3 71.69-3.35 73.12-3.43 74.54-3.5 75.64-3.63 76.74-3.75 77.04-3.85L77.04-3.85 77.04-3.05Q77.04-2.45 76.82-1.78 76.59-1.1 75.84-0.7L75.84-0.7Q74.89-0.1 72.67 0.1 70.44 0.3 66.79 0.3ZM90.49 5.9L90.49 5.9Q88.74 5.9 87.19 5.8 85.64 5.7 84.44 5.43 83.24 5.15 82.54 4.63 81.84 4.1 81.84 3.25L81.84 3.25Q81.84 3 81.84 2.58 81.84 2.15 81.84 1.95L81.84 1.95Q82.44 2.25 83.77 2.53 85.09 2.8 86.64 2.98 88.19 3.15 89.39 3.15L89.39 3.15Q92.29 3.15 93.79 2.35 95.29 1.55 95.79-0.28 96.29-2.1 96.04-5L96.04-5 96.89-4.9Q96.34-3.35 95.37-2.48 94.39-1.6 92.84-1.23 91.29-0.85 89.09-0.85L89.09-0.85Q86.04-0.85 84.14-1.6 82.24-2.35 81.34-4.33 80.44-6.3 80.44-10.05L80.44-10.05Q80.44-13.2 81.07-15.18 81.69-17.15 83.07-18.23 84.44-19.3 86.72-19.68 88.99-20.05 92.39-20.05L92.39-20.05Q93.49-20.05 94.99-19.98 96.49-19.9 98.02-19.8 99.54-19.7 100.72-19.6 101.89-19.5 102.29-19.4L102.29-19.4Q102.24-19.25 102.22-18.65 102.19-18.05 102.19-17.28 102.19-16.5 102.19-15.75L102.19-15.75 102.14-3.85Q102.14 0 100.94 2.13 99.74 4.25 97.19 5.08 94.64 5.9 90.49 5.9ZM91.04-4.3L91.04-4.3Q92.44-4.3 93.57-4.67 94.69-5.05 95.39-5.95 96.09-6.85 96.14-8.55L96.14-8.55 96.14-16.5Q95.74-16.55 94.42-16.68 93.09-16.8 91.54-16.8L91.54-16.8Q89.69-16.8 88.62-16.3 87.54-15.8 87.07-14.45 86.59-13.1 86.59-10.55L86.59-10.55Q86.59-8 87.07-6.65 87.54-5.3 88.52-4.8 89.49-4.3 91.04-4.3ZM113.09-16.3L113.09 0 108.84 0Q107.89 0 107.44-0.48 106.99-0.95 106.99-2.35L106.99-2.35 106.99-18.95Q108.29-19.3 110.71-19.7 113.14-20.1 116.29-20.1L116.29-20.1Q119.54-20.1 121.39-19.7 123.24-19.3 124.11-18.55 124.99-17.8 125.24-16.65 125.49-15.5 125.49-13.9L125.49-13.9 119.69-13.9 119.69-14.6Q119.64-15.8 119.14-16.35 118.64-16.9 117.89-17.03 117.14-17.15 116.39-17.15L116.39-17.15Q115.29-17.15 114.41-16.93 113.54-16.7 113.09-16.3L113.09-16.3ZM138.64 0.25L138.64 0.25Q135.34 0.25 133.29 0.03 131.24-0.2 130.14-0.88 129.04-1.55 128.64-2.75 128.24-3.95 128.24-5.8L128.24-5.8Q128.24-8.35 128.79-9.7 129.34-11.05 130.66-11.53 131.99-12 134.24-12L134.24-12Q135.49-12 137.06-11.98 138.64-11.95 140.14-11.9 141.64-11.85 142.76-11.73 143.89-11.6 144.29-11.5L144.29-11.5Q144.29-13.3 143.99-14.35 143.69-15.4 142.99-15.95 142.29-16.5 141.21-16.65 140.14-16.8 138.64-16.8L138.64-16.8Q136.94-16.8 135.21-16.73 133.49-16.65 131.96-16.48 130.44-16.3 129.29-16L129.29-16 129.29-17.15Q129.29-18.4 129.89-18.98 130.49-19.55 131.44-19.75L131.44-19.75Q132.54-20 134.66-20.1 136.79-20.2 139.19-20.2L139.19-20.2Q142.29-20.2 144.39-19.9 146.49-19.6 147.76-18.7 149.04-17.8 149.59-16.07 150.14-14.35 150.14-11.45L150.14-11.45 150.14-1.35Q149.54-0.5 146.66-0.13 143.79 0.25 138.64 0.25ZM138.59-2.35L138.59-2.35Q140.29-2.35 141.41-2.43 142.54-2.5 143.24-2.7 143.94-2.9 144.29-3.2L144.29-3.2 144.29-9.4Q143.79-9.55 142.71-9.68 141.64-9.8 140.54-9.88 139.44-9.95 138.69-9.95L138.69-9.95Q137.19-9.95 136.24-9.73 135.29-9.5 134.86-8.7 134.44-7.9 134.44-6.2L134.44-6.2Q134.44-4.85 134.74-3.98 135.04-3.1 135.94-2.73 136.84-2.35 138.59-2.35ZM160.28 0L155.53 0 155.53-20.65Q155.53-22.25 156.01-22.63 156.48-23 158.08-23L158.08-23 163.13-23 169.83-8.1 169.93-7.65 170.03-7.7 170.13-8.2 176.68-23 182.03-23Q183.58-23 184.03-22.6 184.48-22.2 184.48-20.8L184.48-20.8 184.48-2.2Q184.48-1.15 184.26-0.7 184.03-0.25 183.51-0.13 182.98 0 181.98 0L181.98 0 177.78 0 177.78-15.8 177.48-14.65 171.03 0 166.88 0 160.53-14.45 160.28-15.6 160.28 0ZM203.63 0.35L203.63 0.35Q199.98 0.35 197.36-0.15 194.73-0.65 193.01-1.95 191.28-3.25 190.46-5.58 189.63-7.9 189.63-11.5L189.63-11.5Q189.63-15.2 190.51-17.53 191.38-19.85 193.16-21.13 194.93-22.4 197.61-22.9 200.28-23.4 203.88-23.4L203.88-23.4Q207.48-23.4 210.11-22.9 212.73-22.4 214.46-21.1 216.18-19.8 217.01-17.48 217.83-15.15 217.83-11.5L217.83-11.5Q217.83-7.85 216.96-5.53 216.08-3.2 214.33-1.9 212.58-0.6 209.91-0.13 207.23 0.35 203.63 0.35ZM203.73-3.2L203.73-3.2Q205.53-3.2 206.91-3.53 208.28-3.85 209.18-4.75 210.08-5.65 210.53-7.28 210.98-8.9 210.98-11.5L210.98-11.5Q210.98-14.15 210.53-15.78 210.08-17.4 209.18-18.3 208.28-19.2 206.91-19.53 205.53-19.85 203.73-19.85L203.73-19.85Q201.88-19.85 200.51-19.53 199.13-19.2 198.26-18.3 197.38-17.4 196.93-15.78 196.48-14.15 196.48-11.5L196.48-11.5Q196.48-8.9 196.93-7.28 197.38-5.65 198.26-4.75 199.13-3.85 200.51-3.53 201.88-3.2 203.73-3.2ZM249.63-11.4L249.63-11.4Q249.63-7.55 248.78-5.25 247.93-2.95 246.23-1.83 244.53-0.7 241.95-0.33 239.38 0.05 235.93 0.05L235.93 0.05Q233.93 0.05 232.05 0.05 230.18 0.05 228.48 0.03 226.78 0 225.3 0 223.83 0 222.73 0L222.73 0 222.73-19.75Q222.73-21.45 223.33-22.2 223.93-22.95 225.78-23L225.78-23Q226.93-23 228.38-23.03 229.83-23.05 231.35-23.05 232.88-23.05 234.4-23.05 235.93-23.05 237.13-23.05L237.13-23.05Q240.38-23 242.75-22.55 245.13-22.1 246.65-20.9 248.18-19.7 248.9-17.43 249.63-15.15 249.63-11.4ZM229.38-17.85L229.38-3.45Q229.83-3.45 230.6-3.45 231.38-3.45 232.25-3.43 233.13-3.4 233.98-3.4 234.83-3.4 235.38-3.4L235.38-3.4Q237.43-3.4 238.85-3.7 240.28-4 241.13-4.88 241.98-5.75 242.38-7.33 242.78-8.9 242.78-11.35L242.78-11.35Q242.78-14.8 242.08-16.57 241.38-18.35 239.78-18.98 238.18-19.6 235.33-19.6L235.33-19.6Q234.68-19.6 233.63-19.6 232.58-19.6 231.58-19.58 230.58-19.55 229.88-19.5L229.88-19.5Q229.68-19.25 229.53-18.93 229.38-18.6 229.38-17.85L229.38-17.85Z" opacity="1" transform="matrix(1,0,0,1,0,0)" fill="#ffffff" class="wordmark-text-0" data-fill-palette-color="quaternary" id="text-0"></path></svg></g></svg></g><g transform="matrix(1,0,0,1,0,31.16252712466126)"><svg viewBox="0 0 199.33972567069034 15.580305550015254" height="15.580305550015254" width="199.33972567069034"><g transform="matrix(1,0,0,1,0,0)"><svg width="199.33972567069034" viewBox="1.75 -36.6 646.11 50.5" height="15.580305550015254" data-palette-color="#ffffff"><path d="M17.75 0.7L17.75 0.7Q13.7 0.7 10.7-0.75 7.7-2.2 5.7-4.75 3.7-7.3 2.73-10.68 1.75-14.05 1.75-17.9L1.75-17.9Q1.75-21.75 2.73-25.15 3.7-28.55 5.7-31.13 7.7-33.7 10.75-35.15 13.8-36.6 17.9-36.6L17.9-36.6Q21.2-36.6 23.75-35.68 26.3-34.75 27.73-33.1 29.15-31.45 29.15-29.25L29.15-29.25Q29.15-26.65 27.63-25.03 26.1-23.4 23.8-23.4L23.8-23.4Q22.75-23.4 22.75-24L22.75-24Q22.75-24.25 23.13-24.78 23.5-25.3 23.88-26.23 24.25-27.15 24.25-28.55L24.25-28.55Q24.25-30.9 22.5-32.35 20.75-33.8 17.9-33.8L17.9-33.8Q14.95-33.8 12.95-32.4 10.95-31 9.73-28.68 8.5-26.35 7.95-23.53 7.4-20.7 7.4-17.9L7.4-17.9Q7.4-13.75 8.7-10.3 10-6.85 12.43-4.8 14.85-2.75 18.2-2.75L18.2-2.75Q21.5-2.75 23.85-3.98 26.2-5.2 27.6-7.25L27.6-7.25Q27.75-7.45 27.95-7.45L27.95-7.45Q28.4-7.45 28.98-7 29.55-6.55 29.55-6.05L29.55-6.05Q29.55-5.9 29.4-5.65L29.4-5.65Q27.45-2.75 24.6-1.03 21.75 0.7 17.75 0.7ZM48.76 0L40.01 0 39.46-1.55 40.51-1.8Q41.81-2.1 42.21-2.9 42.61-3.7 42.61-5.55L42.61-5.55 42.61-19.6Q42.61-20.7 41.61-20.7L41.61-20.7 39.41-20.7 38.96-22Q40.41-23.3 42.29-24.15 44.16-25 45.56-25L45.56-25Q46.26-25 46.71-24.55 47.16-24.1 47.16-23.4L47.16-23.4 47.16-18.05 47.46-18.05Q48.31-21.4 50.09-23.45 51.86-25.5 53.96-25.5L53.96-25.5Q56.01-25.5 57.41-24.15 58.81-22.8 58.81-20.4L58.81-20.4Q58.81-18.5 57.44-17.2 56.06-15.9 53.91-15.9L53.91-15.9Q52.96-15.9 52.96-16.45L52.96-16.45Q52.96-16.7 53.31-17.15 53.66-17.6 54.01-18.3 54.36-19 54.36-19.9L54.36-19.9Q54.36-20.8 53.89-21.33 53.41-21.85 52.71-21.85L52.71-21.85Q51.66-21.85 50.36-20.53 49.06-19.2 48.11-16.13 47.16-13.05 47.16-7.8L47.16-7.8Q47.16-5.55 47.51-4.17 47.86-2.8 48.76-1.55L48.76-1.55 49.36-0.75 48.76 0ZM78.68 0.7L78.68 0.7Q75.18 0.7 72.6-0.9 70.03-2.5 68.6-5.38 67.18-8.25 67.18-12.1L67.18-12.1Q67.18-16.15 68.78-19.15 70.38-22.15 73.3-23.83 76.23-25.5 80.13-25.5L80.13-25.5Q83.03-25.5 84.9-24.45 86.78-23.4 87.7-21.73 88.63-20.05 88.63-18.15L88.63-18.15Q88.63-16.1 87.55-14.15 86.48-12.2 84.35-10.95 82.23-9.7 79.08-9.7L79.08-9.7Q78.58-9.7 77.65-9.83 76.73-9.95 75.8-10.23 74.88-10.5 74.23-10.95 73.58-11.4 73.58-12.05L73.58-12.05Q73.58-12.45 73.8-12.8 74.03-13.15 74.33-13.15L74.33-13.15Q74.73-13.15 75.35-12.83 75.98-12.5 77.53-12.5L77.53-12.5Q79.68-12.5 81.08-13.33 82.48-14.15 83.18-15.48 83.88-16.8 83.88-18.2L83.88-18.2Q83.88-20.05 82.68-21.53 81.48-23 79.13-23L79.13-23Q75.93-23 74.13-20.2 72.33-17.4 72.33-12.1L72.33-12.1Q72.33-7.7 74.2-5.15 76.08-2.6 79.73-2.6L79.73-2.6Q81.83-2.6 83.68-3.3 85.53-4 87.03-5.45L87.03-5.45Q87.23-5.65 87.48-5.65L87.48-5.65Q87.88-5.65 88.33-5.18 88.78-4.7 88.78-4.2L88.78-4.2Q88.78-3.95 88.58-3.75L88.58-3.75Q84.73 0.7 78.68 0.7ZM108.69 0.7L108.69 0.7Q106.34 0.7 104.29-0.65 102.24-2 100.99-4.7 99.74-7.4 99.74-11.45L99.74-11.45Q99.74-15.8 101.32-18.95 102.89-22.1 105.82-23.8 108.74-25.5 112.69-25.5L112.69-25.5Q115.04-25.5 117.59-24.98 120.14-24.45 122.69-24.25L122.69-24.25 123.24-23.6 122.64-22.7Q122.34-22.25 122.17-21.83 121.99-21.4 121.99-20.75L121.99-20.75 121.99-4.4Q121.99-2.85 123.49-2.85L123.49-2.85Q124.74-2.85 125.99-3.75L125.99-3.75 126.94-2.45Q125.64-1 124.17-0.15 122.69 0.7 121.39 0.7L121.39 0.7Q119.34 0.7 118.44-0.55 117.54-1.8 117.54-4.6L117.54-4.6Q115.39-1.55 113.22-0.43 111.04 0.7 108.69 0.7ZM110.69-3.15L110.69-3.15Q112.59-3.15 114.37-4.25 116.14-5.35 117.54-7.7L117.54-7.7 117.54-21.2Q115.24-22.75 112.64-22.75L112.64-22.75Q108.99-22.75 106.99-20.03 104.99-17.3 104.99-12.4L104.99-12.4Q104.99-9 105.79-6.98 106.59-4.95 107.92-4.05 109.24-3.15 110.69-3.15ZM143.06 0.7L143.06 0.7Q141.01 0.7 139.88-0.58 138.76-1.85 138.76-4.1L138.76-4.1 138.76-21.7 134.36-21.7Q134.36-23.05 134.56-23.45 134.76-23.85 135.56-24.05L135.56-24.05Q137.51-24.55 138.58-25.53 139.66-26.5 140.18-27.75 140.71-29 140.96-30.4L140.96-30.4Q141.11-31.2 141.48-31.4 141.86-31.6 143.31-31.6L143.31-31.6 143.31-24.85 149.81-24.85Q149.81-22.6 148.66-21.7L148.66-21.7 143.31-21.7 143.31-5.6Q143.31-4.05 143.76-3.4 144.21-2.75 145.21-2.75L145.21-2.75Q146.71-2.75 148.61-4.35L148.61-4.35 149.56-3.05Q148.26-1.35 146.46-0.33 144.66 0.7 143.06 0.7ZM166.22 0.7L166.22 0.7Q164.17 0.7 163.27-0.55 162.37-1.8 162.37-4.6L162.37-4.6 162.37-20.1Q162.37-21.2 161.37-21.2L161.37-21.2 159.17-21.2 158.72-22.5Q160.17-23.8 162.04-24.65 163.92-25.5 165.32-25.5L165.32-25.5Q166.02-25.5 166.44-25.05 166.87-24.6 166.87-23.9L166.87-23.9 166.87-4.4Q166.87-2.7 168.37-2.7L168.37-2.7Q169.62-2.7 170.87-3.75L170.87-3.75 171.82-2.45Q170.52-1 169.02-0.15 167.52 0.7 166.22 0.7ZM164.72-29.65L164.72-29.65Q164.17-29.65 163.44-30.2 162.72-30.75 162.19-31.5 161.67-32.25 161.67-32.9L161.67-32.9Q161.67-33.55 162.19-34.33 162.72-35.1 163.42-35.65 164.12-36.2 164.72-36.2L164.72-36.2Q165.37-36.2 166.09-35.65 166.82-35.1 167.34-34.33 167.87-33.55 167.87-32.9L167.87-32.9Q167.87-32.25 167.34-31.5 166.82-30.75 166.09-30.2 165.37-29.65 164.72-29.65ZM204.28 0.7L204.28 0.7Q202.23 0.7 201.33-0.55 200.43-1.8 200.43-4.6L200.43-4.6 200.43-16.5Q200.43-21.6 196.13-21.6L196.13-21.6Q193.98-21.6 192.36-19.9 190.73-18.2 189.81-15.13 188.88-12.05 188.88-8L188.88-8Q188.88-5.65 189.23-4.25 189.58-2.85 190.48-1.55L190.48-1.55 191.08-0.75 190.48 0 181.73 0 181.18-1.55 182.23-1.8Q183.53-2.1 183.93-2.9 184.33-3.7 184.33-5.55L184.33-5.55 184.33-19.6Q184.33-20.7 183.33-20.7L183.33-20.7 181.13-20.7 180.68-22Q182.13-23.3 184.01-24.15 185.88-25 187.28-25L187.28-25Q187.98-25 188.43-24.55 188.88-24.1 188.88-23.4L188.88-23.4 188.88-18.05Q189.73-20.25 191.21-21.93 192.68-23.6 194.51-24.55 196.33-25.5 198.23-25.5L198.23-25.5Q201.73-25.5 203.33-23.35 204.93-21.2 204.93-16.5L204.93-16.5 204.93-4.4Q204.93-2.7 206.43-2.7L206.43-2.7Q207.58-2.7 208.93-3.75L208.93-3.75 209.88-2.45Q208.58-1 207.08-0.15 205.58 0.7 204.28 0.7ZM231.15 13.9L231.15 13.9Q228.25 13.9 226.35 12.85 224.45 11.8 223.52 10.15 222.6 8.5 222.6 6.75L222.6 6.75Q222.6 5.2 223.32 3.83 224.05 2.45 225.47 1.58 226.9 0.7 228.95 0.7L228.95 0.7Q229.5 0.7 229.7 0.88 229.9 1.05 229.9 1.25L229.9 1.25Q229.9 1.55 229.3 2.13 228.7 2.7 228.07 3.75 227.45 4.8 227.45 6.65L227.45 6.65Q227.45 8.55 228.6 9.93 229.75 11.3 231.8 11.3L231.8 11.3Q233.95 11.3 235.27 10.08 236.6 8.85 237.2 6.73 237.8 4.6 237.8 1.9L237.8 1.9 237.8-6.05Q235.65-3 233.47-1.88 231.3-0.75 228.95-0.75L228.95-0.75Q226.6-0.75 224.55-1.93 222.5-3.1 221.25-5.5 220-7.9 220-11.45L220-11.45Q220-15.8 221.57-18.95 223.15-22.1 226.07-23.8 229-25.5 232.95-25.5L232.95-25.5Q235.3-25.5 237.85-24.98 240.4-24.45 242.95-24.25L242.95-24.25 243.5-23.6 242.9-22.7Q242.6-22.25 242.42-21.83 242.25-21.4 242.25-20.75L242.25-20.75 242.25 1.1Q242.25 7.3 239.22 10.6 236.2 13.9 231.15 13.9ZM230.95-4.6L230.95-4.6Q232.85-4.6 234.62-5.7 236.4-6.8 237.8-9.15L237.8-9.15 237.8-21.2Q235.5-22.75 232.9-22.75L232.9-22.75Q229.25-22.75 227.25-20.03 225.25-17.3 225.25-12.4L225.25-12.4Q225.25-9.55 226.05-7.83 226.85-6.1 228.15-5.35 229.45-4.6 230.95-4.6ZM290.83 0.7L290.83 0.7Q286.78 0.7 283.78-0.75 280.78-2.2 278.78-4.75 276.78-7.3 275.8-10.68 274.83-14.05 274.83-17.9L274.83-17.9Q274.83-21.75 275.8-25.15 276.78-28.55 278.78-31.13 280.78-33.7 283.83-35.15 286.88-36.6 290.98-36.6L290.98-36.6Q294.28-36.6 296.83-35.68 299.38-34.75 300.8-33.1 302.23-31.45 302.23-29.25L302.23-29.25Q302.23-26.65 300.7-25.03 299.18-23.4 296.88-23.4L296.88-23.4Q295.83-23.4 295.83-24L295.83-24Q295.83-24.25 296.2-24.78 296.58-25.3 296.95-26.23 297.33-27.15 297.33-28.55L297.33-28.55Q297.33-30.9 295.58-32.35 293.83-33.8 290.98-33.8L290.98-33.8Q288.03-33.8 286.03-32.4 284.03-31 282.8-28.68 281.58-26.35 281.03-23.53 280.48-20.7 280.48-17.9L280.48-17.9Q280.48-13.75 281.78-10.3 283.08-6.85 285.5-4.8 287.93-2.75 291.28-2.75L291.28-2.75Q294.58-2.75 296.93-3.98 299.28-5.2 300.68-7.25L300.68-7.25Q300.83-7.45 301.03-7.45L301.03-7.45Q301.48-7.45 302.05-7 302.63-6.55 302.63-6.05L302.63-6.05Q302.63-5.9 302.48-5.65L302.48-5.65Q300.53-2.75 297.68-1.03 294.83 0.7 290.83 0.7ZM324.49 0.7L324.49 0.7Q320.74 0.7 318.01-0.9 315.29-2.5 313.79-5.45 312.29-8.4 312.29-12.4L312.29-12.4Q312.29-16.45 313.79-19.38 315.29-22.3 318.01-23.9 320.74-25.5 324.49-25.5L324.49-25.5Q328.24-25.5 330.96-23.9 333.69-22.3 335.19-19.38 336.69-16.45 336.69-12.4L336.69-12.4Q336.69-8.4 335.19-5.45 333.69-2.5 330.96-0.9 328.24 0.7 324.49 0.7ZM324.34-2L324.34-2Q327.44-2 329.44-4.83 331.44-7.65 331.44-12.25L331.44-12.25Q331.44-13.75 331.11-15.6 330.79-17.45 330.01-19.1 329.24-20.75 327.94-21.83 326.64-22.9 324.64-22.9L324.64-22.9Q322.54-22.9 320.91-21.58 319.29-20.25 318.39-17.88 317.49-15.5 317.49-12.35L317.49-12.35Q317.49-7.65 319.34-4.83 321.19-2 324.34-2ZM385.5 0.7L385.5 0.7Q383.45 0.7 382.55-0.55 381.65-1.8 381.65-4.6L381.65-4.6 381.65-16.5Q381.65-21.6 377.95-21.6L377.95-21.6Q375.85-21.6 374.25-19.98 372.65-18.35 371.73-15.43 370.8-12.5 370.7-8.6L370.7-8.6 370.7-8Q370.7-5.6 371.1-4.03 371.5-2.45 372.9-0.75L372.9-0.75 372.3 0 366.2 0 366.2-16.5Q366.2-21.6 362.5-21.6L362.5-21.6Q360.35-21.6 358.73-19.9 357.1-18.2 356.18-15.13 355.25-12.05 355.25-8L355.25-8Q355.25-5.65 355.6-4.25 355.95-2.85 356.85-1.55L356.85-1.55 357.45-0.75 356.85 0 348.1 0 347.55-1.55 348.6-1.8Q349.9-2.1 350.3-2.9 350.7-3.7 350.7-5.55L350.7-5.55 350.7-19.6Q350.7-20.7 349.7-20.7L349.7-20.7 347.5-20.7 347.05-22Q348.5-23.3 350.38-24.15 352.25-25 353.65-25L353.65-25Q354.35-25 354.8-24.55 355.25-24.1 355.25-23.4L355.25-23.4 355.25-18.05Q356.1-20.25 357.53-21.93 358.95-23.6 360.73-24.55 362.5-25.5 364.3-25.5L364.3-25.5Q367.35-25.5 368.9-23.7 370.45-21.9 370.7-18.05L370.7-18.05Q371.55-20.25 372.98-21.93 374.4-23.6 376.18-24.55 377.95-25.5 379.75-25.5L379.75-25.5Q383.1-25.5 384.63-23.35 386.15-21.2 386.15-16.5L386.15-16.5 386.15-4.4Q386.15-2.7 387.65-2.7L387.65-2.7Q388.8-2.7 390.15-3.75L390.15-3.75 391.1-2.45Q389.8-1 388.3-0.15 386.8 0.7 385.5 0.7ZM438.67 0.7L438.67 0.7Q436.62 0.7 435.72-0.55 434.82-1.8 434.82-4.6L434.82-4.6 434.82-16.5Q434.82-21.6 431.12-21.6L431.12-21.6Q429.02-21.6 427.42-19.98 425.82-18.35 424.89-15.43 423.97-12.5 423.87-8.6L423.87-8.6 423.87-8Q423.87-5.6 424.27-4.03 424.67-2.45 426.07-0.75L426.07-0.75 425.47 0 419.37 0 419.37-16.5Q419.37-21.6 415.67-21.6L415.67-21.6Q413.52-21.6 411.89-19.9 410.27-18.2 409.34-15.13 408.42-12.05 408.42-8L408.42-8Q408.42-5.65 408.77-4.25 409.12-2.85 410.02-1.55L410.02-1.55 410.62-0.75 410.02 0 401.27 0 400.72-1.55 401.77-1.8Q403.07-2.1 403.47-2.9 403.87-3.7 403.87-5.55L403.87-5.55 403.87-19.6Q403.87-20.7 402.87-20.7L402.87-20.7 400.67-20.7 400.22-22Q401.67-23.3 403.54-24.15 405.42-25 406.82-25L406.82-25Q407.52-25 407.97-24.55 408.42-24.1 408.42-23.4L408.42-23.4 408.42-18.05Q409.27-20.25 410.69-21.93 412.12-23.6 413.89-24.55 415.67-25.5 417.47-25.5L417.47-25.5Q420.52-25.5 422.07-23.7 423.62-21.9 423.87-18.05L423.87-18.05Q424.72-20.25 426.14-21.93 427.57-23.6 429.34-24.55 431.12-25.5 432.92-25.5L432.92-25.5Q436.27-25.5 437.79-23.35 439.32-21.2 439.32-16.5L439.32-16.5 439.32-4.4Q439.32-2.7 440.82-2.7L440.82-2.7Q441.97-2.7 443.32-3.75L443.32-3.75 444.27-2.45Q442.97-1 441.47-0.15 439.97 0.7 438.67 0.7ZM464.18 0.7L464.18 0.7Q460.58 0.7 458.56-1.48 456.53-3.65 456.53-7.6L456.53-7.6 456.53-20.1Q456.53-21.2 455.53-21.2L455.53-21.2 453.33-21.2 452.88-22.5Q454.18-23.8 456.06-24.65 457.93-25.5 459.48-25.5L459.48-25.5Q460.18-25.5 460.63-25.05 461.08-24.6 461.08-23.9L461.08-23.9 461.08-8.75Q461.08-2.65 465.88-2.65L465.88-2.65Q469.23-2.65 471.11-5.55 472.98-8.45 472.98-13.55L472.98-13.55Q472.98-16 472.86-17.75 472.73-19.5 472.33-20.83 471.93-22.15 471.03-23.3L471.03-23.3 470.43-24.1 471.03-24.85 477.13-25.5 477.13-4.4Q477.13-2.85 478.58-2.85L478.58-2.85Q479.73-2.85 481.03-3.75L481.03-3.75 481.98-2.45Q480.83-1.05 479.31-0.18 477.78 0.7 476.48 0.7L476.48 0.7Q472.63 0.7 472.63-4.1L472.63-4.1Q471.53-1.9 469.26-0.6 466.98 0.7 464.18 0.7ZM514.69 0.7L514.69 0.7Q512.64 0.7 511.74-0.55 510.84-1.8 510.84-4.6L510.84-4.6 510.84-16.5Q510.84-21.6 506.54-21.6L506.54-21.6Q504.39-21.6 502.77-19.9 501.14-18.2 500.22-15.13 499.29-12.05 499.29-8L499.29-8Q499.29-5.65 499.64-4.25 499.99-2.85 500.89-1.55L500.89-1.55 501.49-0.75 500.89 0 492.14 0 491.59-1.55 492.64-1.8Q493.94-2.1 494.34-2.9 494.74-3.7 494.74-5.55L494.74-5.55 494.74-19.6Q494.74-20.7 493.74-20.7L493.74-20.7 491.54-20.7 491.09-22Q492.54-23.3 494.42-24.15 496.29-25 497.69-25L497.69-25Q498.39-25 498.84-24.55 499.29-24.1 499.29-23.4L499.29-23.4 499.29-18.05Q500.14-20.25 501.62-21.93 503.09-23.6 504.92-24.55 506.74-25.5 508.64-25.5L508.64-25.5Q512.14-25.5 513.74-23.35 515.34-21.2 515.34-16.5L515.34-16.5 515.34-4.4Q515.34-2.7 516.84-2.7L516.84-2.7Q517.99-2.7 519.34-3.75L519.34-3.75 520.29-2.45Q518.99-1 517.49-0.15 515.99 0.7 514.69 0.7ZM536.66 0.7L536.66 0.7Q534.61 0.7 533.71-0.55 532.81-1.8 532.81-4.6L532.81-4.6 532.81-20.1Q532.81-21.2 531.81-21.2L531.81-21.2 529.61-21.2 529.16-22.5Q530.61-23.8 532.48-24.65 534.36-25.5 535.76-25.5L535.76-25.5Q536.46-25.5 536.88-25.05 537.31-24.6 537.31-23.9L537.31-23.9 537.31-4.4Q537.31-2.7 538.81-2.7L538.81-2.7Q540.06-2.7 541.31-3.75L541.31-3.75 542.26-2.45Q540.96-1 539.46-0.15 537.96 0.7 536.66 0.7ZM535.16-29.65L535.16-29.65Q534.61-29.65 533.88-30.2 533.16-30.75 532.63-31.5 532.11-32.25 532.11-32.9L532.11-32.9Q532.11-33.55 532.63-34.33 533.16-35.1 533.86-35.65 534.56-36.2 535.16-36.2L535.16-36.2Q535.81-36.2 536.53-35.65 537.26-35.1 537.78-34.33 538.31-33.55 538.31-32.9L538.31-32.9Q538.31-32.25 537.78-31.5 537.26-30.75 536.53-30.2 535.81-29.65 535.16-29.65ZM558.37 0.7L558.37 0.7Q556.32 0.7 555.2-0.58 554.07-1.85 554.07-4.1L554.07-4.1 554.07-21.7 549.67-21.7Q549.67-23.05 549.87-23.45 550.07-23.85 550.87-24.05L550.87-24.05Q552.82-24.55 553.9-25.53 554.97-26.5 555.5-27.75 556.02-29 556.27-30.4L556.27-30.4Q556.42-31.2 556.8-31.4 557.17-31.6 558.62-31.6L558.62-31.6 558.62-24.85 565.12-24.85Q565.12-22.6 563.97-21.7L563.97-21.7 558.62-21.7 558.62-5.6Q558.62-4.05 559.07-3.4 559.52-2.75 560.52-2.75L560.52-2.75Q562.02-2.75 563.92-4.35L563.92-4.35 564.87-3.05Q563.57-1.35 561.77-0.33 559.97 0.7 558.37 0.7ZM581.54 0.7L581.54 0.7Q579.49 0.7 578.59-0.55 577.69-1.8 577.69-4.6L577.69-4.6 577.69-20.1Q577.69-21.2 576.69-21.2L576.69-21.2 574.49-21.2 574.04-22.5Q575.49-23.8 577.36-24.65 579.24-25.5 580.64-25.5L580.64-25.5Q581.34-25.5 581.76-25.05 582.19-24.6 582.19-23.9L582.19-23.9 582.19-4.4Q582.19-2.7 583.69-2.7L583.69-2.7Q584.94-2.7 586.19-3.75L586.19-3.75 587.14-2.45Q585.84-1 584.34-0.15 582.84 0.7 581.54 0.7ZM580.04-29.65L580.04-29.65Q579.49-29.65 578.76-30.2 578.04-30.75 577.51-31.5 576.99-32.25 576.99-32.9L576.99-32.9Q576.99-33.55 577.51-34.33 578.04-35.1 578.74-35.65 579.44-36.2 580.04-36.2L580.04-36.2Q580.69-36.2 581.41-35.65 582.14-35.1 582.66-34.33 583.19-33.55 583.19-32.9L583.19-32.9Q583.19-32.25 582.66-31.5 582.14-30.75 581.41-30.2 580.69-29.65 580.04-29.65ZM607.75 0.7L607.75 0.7Q604.25 0.7 601.68-0.9 599.1-2.5 597.68-5.38 596.25-8.25 596.25-12.1L596.25-12.1Q596.25-16.15 597.85-19.15 599.45-22.15 602.38-23.83 605.3-25.5 609.2-25.5L609.2-25.5Q612.1-25.5 613.98-24.45 615.85-23.4 616.78-21.73 617.7-20.05 617.7-18.15L617.7-18.15Q617.7-16.1 616.63-14.15 615.55-12.2 613.43-10.95 611.3-9.7 608.15-9.7L608.15-9.7Q607.65-9.7 606.73-9.83 605.8-9.95 604.88-10.23 603.95-10.5 603.3-10.95 602.65-11.4 602.65-12.05L602.65-12.05Q602.65-12.45 602.88-12.8 603.1-13.15 603.4-13.15L603.4-13.15Q603.8-13.15 604.43-12.83 605.05-12.5 606.6-12.5L606.6-12.5Q608.75-12.5 610.15-13.33 611.55-14.15 612.25-15.48 612.95-16.8 612.95-18.2L612.95-18.2Q612.95-20.05 611.75-21.53 610.55-23 608.2-23L608.2-23Q605-23 603.2-20.2 601.4-17.4 601.4-12.1L601.4-12.1Q601.4-7.7 603.28-5.15 605.15-2.6 608.8-2.6L608.8-2.6Q610.9-2.6 612.75-3.3 614.6-4 616.1-5.45L616.1-5.45Q616.3-5.65 616.55-5.65L616.55-5.65Q616.95-5.65 617.4-5.18 617.85-4.7 617.85-4.2L617.85-4.2Q617.85-3.95 617.65-3.75L617.65-3.75Q613.8 0.7 607.75 0.7ZM637.96 0.7L637.96 0.7Q635.51 0.7 633.54-0.05 631.56-0.8 630.41-2.23 629.26-3.65 629.26-5.55L629.26-5.55Q629.26-7.25 630.41-8.35 631.56-9.45 633.41-9.45L633.41-9.45Q633.81-9.45 634.14-9.33 634.46-9.2 634.46-8.85L634.46-8.85Q634.46-8.55 634.16-7.93 633.86-7.3 633.86-6.05L633.86-6.05Q633.86-4.55 634.61-3.6 635.36-2.65 636.46-2.2 637.56-1.75 638.61-1.75L638.61-1.75Q640.66-1.75 641.99-2.88 643.31-4 643.31-5.8L643.31-5.8Q643.31-7 642.54-7.83 641.76-8.65 640.51-9.3 639.26-9.95 637.86-10.55L637.86-10.55Q636.06-11.3 634.21-12.3 632.36-13.3 631.11-14.83 629.86-16.35 629.86-18.75L629.86-18.75Q629.86-20.8 631.06-22.3 632.26-23.8 634.31-24.65 636.36-25.5 638.96-25.5L638.96-25.5Q642.46-25.5 644.84-24.13 647.21-22.75 647.21-20.35L647.21-20.35Q647.21-18.5 646.04-17.25 644.86-16 643.01-16L643.01-16Q641.96-16 641.96-16.65L641.96-16.65Q641.96-17.05 642.34-17.68 642.71-18.3 642.71-19.45L642.71-19.45Q642.71-20.8 642.06-21.6 641.41-22.4 640.49-22.75 639.56-23.1 638.61-23.1L638.61-23.1Q636.51-23.1 635.36-22.08 634.21-21.05 634.21-19.45L634.21-19.45Q634.21-18.1 635.04-17.15 635.86-16.2 637.21-15.5 638.56-14.8 640.06-14.15L640.06-14.15Q641.91-13.4 643.69-12.48 645.46-11.55 646.66-10.2 647.86-8.85 647.86-6.8L647.86-6.8Q647.86-3.4 645.16-1.35 642.46 0.7 637.96 0.7Z" opacity="1" transform="matrix(1,0,0,1,0,0)" fill="#ffffff" class="slogan-text-1" data-fill-palette-color="quaternary" id="text-1"></path></svg></g></svg></g></svg></g></svg></g><g transform="matrix(1,0,0,1,65.27048883432101,0)"><svg viewBox="0 0 82.61746355851508 64.59859475640295" height="64.59859475640295" width="82.61746355851508"><g><svg xmlns="http://www.w3.org/2000/svg" xmlns:xlink="http://www.w3.org/1999/xlink" version="1.1" x="0" y="0" viewBox="5 14.814999999999998 90 70.371" enable-background="new 0 0 100 100" xml:space="preserve" height="64.59859475640295" width="82.61746355851508" class="icon-icon-0" data-fill-palette-color="quaternary" id="icon-0"><g fill="#ffffff" data-fill-palette-color="quaternary"><g fill="#ffffff" data-fill-palette-color="quaternary"><g fill="#ffffff" data-fill-palette-color="quaternary"><circle cx="32.558" cy="34.641" r="20" fill="#ffffff" data-fill-palette-color="quaternary"></circle><path d="M60.117 85.185V68.309c0-7.653-5.507-14.016-12.774-15.354-3.631 4.062-8.908 6.621-14.785 6.621s-11.154-2.559-14.785-6.621C10.507 54.292 5 60.655 5 68.309v16.877H60.117z" fill="#ffffff" data-fill-palette-color="quaternary"></path></g><circle cx="74.746" cy="42.242" r="15" fill="#ffffff" data-fill-palette-color="quaternary"></circle><path d="M85.612 55.702c-2.668 2.985-6.547 4.866-10.866 4.866-4.319 0-8.197-1.881-10.866-4.866-0.959 0.176-1.875 0.474-2.735 0.873 2.37 2.737 3.806 6.304 3.806 10.209v12.605H95V66.986C95 61.361 90.953 56.685 85.612 55.702z" fill="#ffffff" data-fill-palette-color="quaternary"></path></g></g></svg></g></svg></g><g></g></svg></g></svg></g></svg></g></svg></g><defs></defs></svg><rect width="342.85155851775386" height="342.85155851775386" fill="none" stroke="none" visibility="hidden"></rect></g></svg></g></svg>