<?xml version="1.0" encoding="utf-8"?>
<!-- Uploaded to: SVG Repo, www.svgrepo.com, Generator: SVG Repo Mixer Tools -->
<svg width="75px" height="75px" viewBox="-7 0 32 32" version="1.1" xmlns="http://www.w3.org/2000/svg">
<title>aim</title>
<path d="M13.969 6.75c0.781 0.781 1.156 1.688 1.156 2.75 0 0.906-0.25 1.719-0.813 2.406-0.531 0.688-1.25 1.156-2.094 1.375 1.031 0.125 2-0.063 2.906-0.531l0.656-0.406 1.813 4.156-0.563 0.313c-1.406 0.781-2.656 1.25-3.719 1.406 1.781 1.406 3.219 3.25 4.25 5.563l0.219 0.5-4.156 2.469-0.344-0.594c-0.688-1.563-2.031-2.875-4-3.844-0.781 1.063-1.563 1.906-2.313 2.438-1.188 0.906-2.688 1.563-4.531 1.938l-0.594 0.156-1.844-5.031 1.406-0.219c0.375-0.125 0.75-0.25 1.156-0.469 1.188-0.563 2.031-1.438 2.594-2.594 0.063-0.094 0.094-0.375 0.125-0.75 0.219-2.781 1.188-4.75 2.844-5.938-0.531-0.688-0.781-1.469-0.781-2.344 0-1.063 0.375-1.969 1.156-2.75 0.75-0.781 1.656-1.156 2.75-1.156 1.063 0 1.969 0.375 2.719 1.156zM15.875 15.938l-0.75-1.719c-1.438 0.594-2.813 0.688-4.125 0.25l-0.281-0.094-0.125-0.313c-0.031-0.125-0.063-0.313-0.094-0.563v-0.156c-0.531-0.125-0.938-0.281-1.344-0.563-0.813 0.469-1.406 1.094-1.781 1.875-0.406 0.781-0.656 1.875-0.781 3.25-0.063 0.625-0.125 1.031-0.25 1.219-0.906 1.906-2.406 3.156-4.531 3.719l0.875 2.438c1.469-0.344 2.719-0.938 3.656-1.719 0.594-0.469 1.219-1.188 1.969-2.156l0.313-0.406c0.094-0.125 0.25-0.188 0.438-0.188 0.094 0 0.219 0.031 0.281 0.094 2.25 0.969 3.875 2.281 4.813 4l1.938-1.125c-0.938-1.813-2.125-3.344-3.625-4.531-0.469-0.344-0.938-0.688-1.438-0.938l-0.656-0.344c-0.219-0.094-0.313-0.281-0.281-0.563 0.063-0.438 0.25-0.656 0.625-0.656l0.406 0.063 1.938 0.094c0.813-0.094 1.75-0.406 2.813-0.969zM11.25 7.031c-0.688 0-1.281 0.219-1.781 0.719s-0.75 1.063-0.75 1.75 0.25 1.281 0.75 1.75c0.5 0.5 1.094 0.75 1.781 0.75s1.25-0.25 1.75-0.75c0.5-0.469 0.75-1.063 0.75-1.75s-0.25-1.25-0.75-1.75-1.063-0.719-1.75-0.719z"></path>
</svg>