<?xml version="1.0" encoding="UTF-8" standalone="no"?>
<svg width="75" height="75" viewBox="0 0 330 460" xmlns="http://www.w3.org/2000/svg">
  <path d="M156.13057 390.8796c0 18.8117 6.57145 26.1773 16.61817 26.1773 25.14269 0 65.1996-58.6849 63.67842-120.2978 38.12439-40.2183 83.82612-103.2202 83.82612-153.6812 0-12.2152-3.46381-22.5007-17.94172-22.5007-22.13453 0-53.76345 38.1493-73.82581 76.0318-19.34794 39.2463-37.44675 84.0096-61.47249 145.4456-5.61391 15.4098-10.88269 34.0734-10.88269 48.825zm543.84029-83.7525v31.6186s15.67312 11.3239 46.25142 11.3239c46.41297 0 66.80353-25.8958 66.80353-54.1561 0-61.2444-82.46577-46.6049-82.46577-87.2453 0-15.2737 12.16097-26.3244 32.57453-26.3244 23.83843 0 41.39834 12.721 41.39834 12.721v-29.2656s-16.32242-9.0444-39.85418-9.0444c-39.68676 0-64.41375 24.785-64.41375 54.5605 0 60.5501 82.20843 48.7052 82.20843 88.1645 0 18.1348-14.9105 24.7066-34.19224 24.7066-27.60166 0-48.31031-17.0593-48.31031-17.0593zm299.52915 38.5995h-29.5193V240.6091c-.0001-39.1189-14.2798-58.6784-42.8389-58.6786-14.7599.0002-26.9695 5.55-36.6292 16.6496-9.6599 11.0998-14.4897 25.1095-14.4897 42.029v105.1175h-29.5192V161.411h29.5192v30.5993h.7198c13.9196-23.2793 34.079-34.919 60.4785-34.9192 20.1594.0002 35.579 6.51 46.2589 19.5295 10.6796 13.0198 16.0195 31.8294 16.0196 56.4286zm-331.75473 0h-29.51926V239.8891c-.00027-20.3994-3.15013-35.159-9.44976-44.279-6.3001-9.1195-16.88986-13.6794-31.76929-13.6796-12.59991.0002-23.30957 5.76-32.12916 17.2796-8.82006 11.5198-13.2299 25.3195-13.22971 41.399v105.1175h-29.51935V236.2892c-.00009-36.239-13.97978-54.3585-41.93899-54.3587-12.95978.0002-23.63949 5.43-32.03921 16.2896-8.39991 10.8599-12.59973 24.9895-12.59973 42.389v105.1175h-29.51925V161.411h29.51925v29.1593h.71976c13.07958-22.3193 32.15911-33.479 57.23856-33.4792 12.59964.0002 23.57932 3.5101 32.93923 10.5297 9.35964 7.02 15.77954 16.2298 19.2596 27.6294 13.67945-25.4393 34.07895-38.1589 61.1985-38.1591 40.55874.0002 60.83825 25.0196 60.83853 75.0582zm-620.554 86.2831C21.98446 432.0097.5 416.1886.5 380.3269c0-55.361 47.64151-97.4029 69.25699-109.293 0 0 30.24262 17.4218 61.61748 28.6328C69.03538 260.2252 29.2011 188.363 29.2011 108.6023 29.2011 34.0612 68.54666.5 104.07015.5c28.57681 0 96.32649 31.4361 96.32649 152.0635 0 129.7996-67.72984 279.4462-153.20536 279.4462z"/>
</svg>