<?xml version="1.0" encoding="UTF-8"?>
<svg xmlns="http://www.w3.org/2000/svg" version="1.0" width="45" height="75"><g transform="matrix(2.688812e-2,0,0,-2.688812e-2,-1.364473,98.59382)" style="stroke-miterlimit:10">
<path d="M 719.899,2297.19 C 719.899,2332 713.47,2370 693.25,2399.19 C 652.71,2457.7 565.68,2476.31 505.1,2439.44 C 474.48,2420.79 457.45,2388.23 447.85,2354.8 C 428.79,2288.42 437.53,2212.67 450.859,2146.01 C 455.119,2124.69 459.519,2103.34 465.499,2082.41 C 467.659,2074.86 468.659,2063.89 473.569,2057.61 C 482.138,2046.63 503.059,2043.45 515.888,2045.61 C 554.378,2052.08 544.848,2115.46 543.538,2142.41 C 540.468,2205.54 521.868,2266.81 539.888,2329.6 C 547.518,2356.17 562.258,2386.05 589.088,2397.59 C 613.308,2408.02 637.748,2395.26 647.338,2371.6 C 662.867,2333.29 658.987,2289.06 668.727,2249.2 C 672.037,2235.65 675.677,2222.23 681.787,2209.6 C 683.557,2205.95 685.997,2198.36 691.127,2198.82 C 703.597,2199.96 721.327,2220.77 730.676,2228.49 C 760.876,2253.45 791.906,2280.18 826.676,2298.65 C 843.036,2307.34 869.955,2321.41 886.666,2306.63 C 890.925,2302.86 894.355,2298.36 897.405,2293.59 C 917.045,2262.82 897.545,2238.85 884.776,2209.59 C 868.246,2171.72 851.307,2134.23 827.356,2100.39 C 806.766,2071.29 778.627,2045.78 762.176,2013.99 C 751.586,1993.52 745.596,1971.09 749.976,1947.99 C 753.526,1929.31 768.006,1918.03 787.056,1922.41 C 801.316,1925.69 810.976,1937.91 819.106,1949.19 C 833.596,1969.31 847.056,1990.19 861.456,2010.39 C 889.316,2049.46 922.186,2085.99 945.616,2127.99 C 973.856,2178.62 987.476,2235.91 987.445,2293.58 C 987.426,2340.71 970.336,2412.74 915.445,2422.62 C 905.116,2424.47 893.305,2423.46 883.045,2421.67 C 870.296,2419.45 857.496,2415.3 845.846,2409.66 C 814.636,2394.56 787.646,2372.01 764.456,2346.37 C 749.987,2330.39 737.027,2310.29 719.857,2297.17" style="stroke:none" id="path26" /><path d="M 668.3,3463.03 C 625.01,3457.34 581.01,3457.93 537.51,3451.21 C 454.181,3438.34 374.37,3412.45 296.321,3381.22 C 267.901,3369.85 239.861,3357.18 212.321,3343.85 C 202.072,3338.89 186.441,3334.92 178.201,3326.96 C 173.912,3322.81 174.352,3313.09 173.831,3307.54 C 172.382,3291.93 170.432,3276.34 168.921,3260.74 C 163.092,3200.54 158.982,3138.52 167.602,3078.35 C 170.392,3058.91 176.432,3023.65 200.322,3019.92 C 237.061,3014.17 265.601,3059.38 283.631,3084.35 C 325.741,3142.67 373.651,3196.96 442.711,3223.03 C 524.011,3253.72 617.091,3260.95 703.101,3266.85 C 944.411,3283.39 1208.11,3239.31 1385.87,3061.55 C 1411.15,3036.27 1435.08,3009.44 1455.43,2979.95 C 1535.02,2864.69 1577.11,2733.63 1597.38,2595.97 C 1606.91,2531.34 1613.42,2465.94 1598.68,2401.58 C 1573.1,2289.92 1506.03,2192.73 1428.96,2109.99 C 1376.21,2053.36 1316.85,2002.17 1255.07,1955.64 C 1220.58,1929.67 1181.9,1907.64 1149.47,1879.25 C 1112.12,1846.55 1081.05,1805.63 1057.44,1762 C 993.9,1644.52 976.861,1503.16 995.55,1372.02 C 999.38,1345.14 1002.84,1318.13 1008.93,1291.62 C 1010.75,1283.69 1011.07,1270.06 1016.2,1263.58 C 1025.8,1251.46 1052,1244.79 1066.67,1244.08 C 1081.97,1243.34 1092.15,1255.1 1095.9,1268.82 C 1102.32,1292.33 1098.48,1318.37 1094.76,1342.02 C 1087.14,1390.46 1080.16,1439.24 1082.32,1488.41 C 1086.3,1579.2 1121.4,1663.8 1184.32,1729.6 C 1248.31,1796.52 1334.74,1835.11 1407.46,1891.17 C 1554.02,2004.15 1685.32,2156.58 1735.74,2337.97 C 1753.76,2402.84 1759.73,2471.58 1751.5,2538.36 C 1741.1,2622.83 1710.21,2707.2 1681.11,2786.75 C 1592.42,3029.23 1440.28,3259.83 1198.67,3370.76 C 1102.78,3414.78 1002.51,3434.82 898.68,3449.28 C 849.99,3456.06 801.31,3460.22 752.289,3462.37 C 725.06,3463.56 695.44,3466.58 668.29,3463.01" style="stroke:none" id="path28" /><path d="M 290.31,1893.49 C 243.22,1886.75 229.53,1849 238.23,1806.41 C 249.37,1751.91 292.23,1710.34 334.699,1677.6 C 443.509,1593.72 584.049,1548.38 721.079,1554.38 C 774.549,1556.72 832.799,1565.56 881.869,1588.25 C 908.179,1600.41 935.699,1644.22 899.869,1662.97 C 894.959,1665.54 888.54,1667.13 883.069,1668.03 C 867.42,1670.59 849.899,1663.93 835.07,1659.67 C 808.92,1652.16 782.79,1644.47 755.87,1640.15 C 675.44,1627.23 588.47,1645.61 521.88,1693.27 C 468.051,1731.81 424.511,1782.63 383.41,1834.01 C 358.251,1865.46 335.511,1899.97 290.291,1893.49" style="stroke:none" id="path30" /><path d="M 229.11,1627.11 C 217.13,1625.53 203.39,1625.98 193.13,1618.45 C 171.73,1602.74 195.3,1571.14 206.56,1556.82 C 239.209,1515.33 282.199,1480.89 325.1,1450.53 C 444.699,1365.92 580.179,1317.11 725.88,1307.12 C 767.769,1304.25 810.439,1307.23 851.869,1314.13 C 867.018,1316.66 885.869,1317.8 899.869,1324.34 C 939.488,1342.87 928.028,1417.72 892.669,1434.36 C 877.229,1441.62 852.459,1432.03 836.269,1429.78 C 797.979,1424.44 759.579,1423.9 721.069,1424.84 C 620.139,1427.31 512.619,1458.4 424.679,1507.46 C 390.109,1526.76 358.36,1550.24 328.679,1576.37 C 310.629,1592.26 292.089,1618.26 268.68,1626.29 C 257.78,1630.03 240.419,1628.61 229.079,1627.12" style="stroke:none" id="path32" /><path d="M 253.109,1402.7 C 236.05,1400.79 223.19,1391.89 211.97,1379.23 C 204.24,1370.51 196.9,1362.63 192.46,1351.63 C 167.98,1291.07 233.24,1233.9 278.31,1205.3 C 328.469,1173.48 383.269,1149.89 439.099,1130.02 C 565.019,1085.2 712.709,1056.51 843.479,1096.58 C 882.349,1108.48 920.769,1130.24 949.029,1159.65 C 964.948,1176.22 975.878,1201.31 946.679,1211.92 C 929.379,1218.2 908.369,1202.21 892.679,1195.89 C 855.639,1180.95 817.239,1169.61 777.479,1164.8 C 725.109,1158.45 677.959,1169.98 627.489,1182.61 C 584.379,1193.39 540.78,1204.17 499.099,1219.71 C 463.539,1232.97 428.219,1248.72 397.1,1270.74 C 387.8,1277.32 376.66,1283.18 369.04,1291.75 C 344.13,1319.78 325.41,1352.58 298.7,1379.24 C 287.16,1390.76 270.761,1404.68 253.1,1402.71" style="stroke:none" id="path34" /></g></svg>
